<svg aria-hidden="true" style="position: absolute; width: 0; height: 0; overflow: hidden;" version="1.1" xmlns="http://www.w3.org/2000/svg" xmlns:xlink="http://www.w3.org/1999/xlink">
<defs>
<symbol id="icon-Logo5" viewBox="0 0 37 20">
<path d="M19.118 9.801c-0.159-0.211-0.234-0.46-0.216-0.711v-1.031c0-0.316 0.072-0.556 0.215-0.721s0.39-0.246 0.739-0.246c0.328 0 0.561 0.070 0.699 0.21 0.15 0.178 0.223 0.397 0.207 0.617v0.242h-0.587v-0.246c0.002-0.080-0.004-0.161-0.017-0.24-0.008-0.054-0.038-0.105-0.084-0.143-0.060-0.041-0.136-0.061-0.213-0.056-0.080-0.005-0.16 0.016-0.224 0.059-0.051 0.042-0.085 0.097-0.097 0.157-0.017 0.084-0.025 0.17-0.023 0.255v1.252c-0.009 0.121 0.017 0.242 0.075 0.352 0.029 0.037 0.070 0.067 0.117 0.085s0.1 0.025 0.152 0.020c0.075 0.005 0.15-0.015 0.208-0.057 0.048-0.041 0.079-0.094 0.088-0.152 0.014-0.083 0.020-0.167 0.018-0.251v-0.254h0.587v0.232c0.017 0.229-0.055 0.457-0.203 0.648-0.135 0.153-0.365 0.23-0.703 0.23s-0.593-0.082-0.738-0.252z"></path>
<path d="M21.563 9.812c-0.148-0.161-0.223-0.395-0.223-0.704v-1.085c0-0.306 0.074-0.538 0.223-0.696s0.396-0.236 0.744-0.235c0.345 0 0.592 0.078 0.741 0.235s0.224 0.389 0.224 0.696v1.085c0 0.306-0.075 0.541-0.226 0.703s-0.396 0.242-0.738 0.242-0.595-0.082-0.744-0.241zM22.581 9.551c0.053-0.101 0.077-0.211 0.071-0.321v-1.328c0.007-0.108-0.017-0.216-0.069-0.315-0.030-0.038-0.071-0.068-0.12-0.087s-0.102-0.025-0.155-0.018c-0.053-0.006-0.107 0-0.155 0.019s-0.091 0.048-0.121 0.086c-0.053 0.098-0.078 0.206-0.071 0.315v1.335c-0.007 0.11 0.017 0.221 0.071 0.321 0.034 0.034 0.077 0.061 0.124 0.080s0.099 0.028 0.151 0.028 0.104-0.010 0.151-0.028c0.047-0.019 0.090-0.046 0.124-0.080v-0.006z"></path>
<path d="M23.978 7.124h0.632l0.475 2.002 0.486-2.002h0.615l0.062 2.889h-0.455l-0.049-2.008-0.469 2.008h-0.365l-0.486-2.016-0.045 2.016h-0.46l0.057-2.889z"></path>
<path d="M26.958 7.124h0.985c0.567 0 0.851 0.273 0.851 0.82 0 0.524-0.299 0.786-0.896 0.785h-0.336v1.284h-0.608l0.004-2.889zM27.8 8.358c0.060 0.007 0.121 0.002 0.179-0.014s0.111-0.042 0.156-0.077c0.070-0.098 0.1-0.212 0.088-0.326 0.003-0.088-0.007-0.176-0.029-0.262-0.009-0.029-0.024-0.056-0.045-0.079s-0.047-0.043-0.077-0.058c-0.084-0.035-0.178-0.051-0.271-0.046h-0.236v0.863h0.236z"></path>
<path d="M29.671 7.124h0.653l0.67 2.889h-0.567l-0.133-0.666h-0.582l-0.136 0.666h-0.575l0.67-2.889zM30.229 9.012l-0.227-1.213-0.227 1.213h0.455z"></path>
<path d="M31.535 7.124h0.426l0.815 1.648v-1.648h0.505v2.889h-0.405l-0.82-1.721v1.721h-0.522l0.001-2.889z"></path>
<path d="M34.462 8.911l-0.677-1.784h0.57l0.413 1.146 0.388-1.146h0.558l-0.669 1.784v1.102h-0.584v-1.102z"></path>
<path d="M20.056 11.276v0.151h-0.496v1.174h-0.208v-1.174h-0.499v-0.151h1.203z"></path>
<path d="M21.612 12.602h-0.161c-0.016 0.001-0.032-0.004-0.045-0.013-0.012-0.008-0.021-0.018-0.027-0.030l-0.143-0.315h-0.688l-0.143 0.315c-0.004 0.013-0.012 0.025-0.022 0.036-0.013 0.009-0.029 0.013-0.045 0.013h-0.161l0.608-1.325h0.212l0.615 1.32zM20.605 12.109h0.574l-0.243-0.539c-0.018-0.041-0.033-0.082-0.045-0.125-0.008 0.025-0.016 0.049-0.023 0.070l-0.022 0.056-0.241 0.538z"></path>
<path d="M22.66 12.472c0.038 0.002 0.076 0.002 0.114 0 0.033-0.003 0.065-0.008 0.097-0.016 0.030-0.006 0.059-0.014 0.088-0.024 0.027-0.009 0.053-0.021 0.081-0.033v-0.298h-0.243c-0.006 0-0.012-0.001-0.018-0.002s-0.011-0.005-0.015-0.008c-0.004-0.003-0.007-0.007-0.009-0.011s-0.003-0.009-0.003-0.013v-0.102h0.472v0.508c-0.038 0.024-0.079 0.045-0.122 0.063s-0.089 0.034-0.135 0.045c-0.050 0.013-0.101 0.022-0.152 0.027-0.059 0.006-0.118 0.008-0.178 0.008-0.105 0.001-0.209-0.016-0.306-0.049-0.091-0.032-0.174-0.079-0.243-0.138-0.068-0.060-0.121-0.132-0.157-0.21-0.038-0.088-0.057-0.181-0.056-0.275-0.001-0.094 0.017-0.188 0.055-0.277 0.035-0.079 0.088-0.15 0.157-0.21s0.152-0.106 0.243-0.137c0.104-0.034 0.215-0.051 0.326-0.049 0.057-0 0.113 0.004 0.169 0.012 0.049 0.007 0.098 0.018 0.145 0.034 0.043 0.014 0.083 0.031 0.122 0.052 0.037 0.021 0.073 0.044 0.106 0.069l-0.058 0.082c-0.005 0.007-0.011 0.014-0.020 0.018s-0.018 0.007-0.028 0.007c-0.013-0-0.027-0.004-0.038-0.011-0.018-0.008-0.038-0.019-0.060-0.031-0.026-0.014-0.053-0.026-0.081-0.036-0.036-0.013-0.074-0.022-0.112-0.029-0.051-0.008-0.103-0.012-0.154-0.012-0.080-0.001-0.16 0.012-0.235 0.037-0.068 0.023-0.129 0.059-0.179 0.105-0.050 0.048-0.089 0.104-0.113 0.165-0.054 0.143-0.054 0.298 0 0.442 0.027 0.062 0.068 0.119 0.122 0.167 0.050 0.045 0.11 0.081 0.178 0.105 0.077 0.023 0.159 0.032 0.241 0.026z"></path>
<path d="M24.598 12.45h0.664v0.151h-0.867v-1.325h0.208l-0.005 1.174z"></path>
<path d="M25.953 12.602h-0.208v-1.325h0.208v1.325z"></path>
<path d="M26.726 11.283c0.012 0.006 0.023 0.014 0.032 0.024l0.889 0.999c-0.001-0.016-0.001-0.032 0-0.047 0-0.015 0-0.029 0-0.043v-0.944h0.181v1.331h-0.105c-0.015 0.001-0.031-0.001-0.045-0.007-0.013-0.007-0.024-0.015-0.033-0.025l-0.888-0.998c0 0.016 0 0.030 0 0.045s0 0.028 0 0.041v0.944h-0.174v-1.325h0.108c0.012 0 0.023 0.002 0.034 0.006z"></path>
<path d="M29.358 11.276v0.146h-0.737v0.438h0.597v0.141h-0.597v0.452h0.737v0.146h-0.951v-1.322h0.951z"></path>
<path d="M7.57 3.092l9.233 2.262v7.927l-9.233-2.261v-7.928zM6.978 2.417v8.989l10.416 2.553v-8.988l-10.416-2.554z"></path>
<path d="M12.56 18.131l-10.417-2.555v-8.988l10.417 2.554v8.989z"></path>
<path d="M7.15 2.991l9.112 2.234-3.875 3.345-9.114-2.235 3.876-3.344zM6.978 2.417l-4.835 4.172 10.417 2.554 4.833-4.172-10.416-2.554z"></path>
<path d="M13.146 17.625l4.247-3.666-4.247-1.042v4.708z"></path>
</symbol>
<symbol id="icon-Logo4" viewBox="0 0 37 20">
<path d="M9.569 15.848c0.088 0.098 0.134 0.22 0.132 0.346 0.004 0.082-0.012 0.164-0.047 0.239s-0.089 0.143-0.157 0.197c-0.17 0.116-0.381 0.172-0.594 0.159h-1.045v-2.19h1.023c0.202-0.012 0.402 0.039 0.567 0.146 0.066 0.050 0.118 0.113 0.153 0.184s0.050 0.148 0.046 0.226c0.006 0.121-0.036 0.24-0.119 0.335-0.079 0.087-0.189 0.147-0.311 0.171 0.139 0.023 0.264 0.089 0.353 0.187zM8.343 15.517h0.437c0.099 0.007 0.198-0.019 0.278-0.073 0.033-0.027 0.058-0.060 0.075-0.097s0.023-0.077 0.019-0.117c0.003-0.040-0.004-0.079-0.020-0.116s-0.041-0.070-0.073-0.098c-0.082-0.055-0.184-0.081-0.286-0.074h-0.43v0.575zM9.101 16.357c0.035-0.027 0.063-0.062 0.081-0.1s0.026-0.080 0.023-0.122c0.003-0.042-0.005-0.084-0.024-0.123s-0.046-0.074-0.082-0.101c-0.086-0.057-0.191-0.085-0.297-0.079h-0.459v0.602h0.465c0.105 0.005 0.208-0.021 0.294-0.076z"></path>
<path d="M11.66 16.789l-0.569-0.856h-0.214v0.856h-0.49v-2.19h0.927c0.234-0.015 0.465 0.052 0.645 0.186 0.13 0.119 0.208 0.276 0.22 0.442s-0.041 0.331-0.151 0.465c-0.114 0.118-0.271 0.197-0.442 0.223l0.606 0.875h-0.532zM10.877 15.635h0.401c0.278 0 0.417-0.111 0.417-0.332 0.003-0.045-0.005-0.090-0.022-0.133s-0.045-0.081-0.080-0.113c-0.088-0.066-0.201-0.098-0.315-0.089h-0.405l0.005 0.667z"></path>
<path d="M14.337 16.348h-0.976l-0.172 0.441h-0.513l0.896-2.166h0.555l0.893 2.166h-0.513l-0.169-0.441zM14.206 16.017l-0.357-0.924-0.357 0.924h0.713z"></path>
<path d="M17.687 16.789h-0.486l-1.090-1.489v1.489h-0.485v-2.19h0.485l1.090 1.498v-1.498h0.486v2.19z"></path>
<path d="M20.461 16.265c-0.101 0.165-0.254 0.3-0.44 0.386-0.212 0.096-0.446 0.144-0.683 0.138h-0.865v-2.19h0.865c0.237-0.006 0.471 0.041 0.683 0.135 0.186 0.084 0.339 0.218 0.44 0.382 0.1 0.178 0.152 0.375 0.152 0.575s-0.052 0.396-0.152 0.575zM19.905 16.212c0.139-0.146 0.215-0.331 0.215-0.523s-0.076-0.377-0.215-0.523c-0.168-0.132-0.386-0.199-0.608-0.186h-0.337v1.418h0.337c0.222 0.013 0.441-0.054 0.608-0.186z"></path>
<path d="M14.641 2.417c0 0 6.274 2.132 6.141 5.218v5.219c0 0-6.269-2.133-6.138-5.219l-0.002-5.218z"></path>
<path d="M26.371 11.632c1.185-0.734 2.555-1.189 3.986-1.322v-1.634c-1.648 0.572-3.047 1.609-3.986 2.956z"></path>
<path d="M25.659 12.124c0.97-1.758 2.651-3.115 4.698-3.791v-4.708c0 0-8.935 3.038-8.746 7.432v7.431c0 0 0.398-0.136 1.024-0.391 0-0.237 0-0.477 0.029-0.718 0.185-2.040 1.262-3.93 2.995-5.255z"></path>
<path d="M24.809 14.885c0.047-0.515 0.152-1.025 0.313-1.521-1.079 1.144-1.732 2.564-1.868 4.060-0.013 0.141-0.020 0.282-0.024 0.428 0.508-0.219 1.098-0.493 1.719-0.815-0.158-0.708-0.205-1.432-0.139-2.152z"></path>
<path d="M25.165 14.911c-0.059 0.651-0.022 1.306 0.111 1.948 2.441-1.315 5.184-3.347 5.078-5.802v-0.214c-1.744 0.176-3.376 0.862-4.645 1.954-0.297 0.677-0.481 1.389-0.544 2.114z"></path>
</symbol>
<symbol id="icon-Logo3" viewBox="0 0 37 20">
<path d="M8.599 7.685h-0.001c-0.852 0-1.543 0.623-1.543 1.391v0.001c0 0.768 0.691 1.391 1.543 1.391h0.001c0.852 0 1.543-0.623 1.543-1.391v-0.001c0-0.768-0.691-1.391-1.543-1.391z"></path>
<path d="M19.986 7.24c-0.002-1.067-0.473-2.090-1.31-2.844s-1.971-1.18-3.154-1.182v0c-1.184 0.002-2.318 0.427-3.156 1.181s-1.308 1.778-1.311 2.845v5.884c0 0 8.93-0.897 8.931-5.883v-0.001z"></path>
<path d="M3.929 15.055c0.002 0.742 0.33 1.454 0.912 1.979s1.371 0.821 2.195 0.823c0.823-0.002 1.612-0.298 2.194-0.823s0.91-1.236 0.913-1.978v-4.094c0 0-6.214 0.624-6.214 4.093zM7.035 15.789c-0.161 0-0.318-0.043-0.452-0.124s-0.238-0.195-0.3-0.329-0.078-0.282-0.046-0.424c0.031-0.142 0.109-0.273 0.223-0.376s0.259-0.172 0.417-0.201c0.158-0.028 0.321-0.014 0.47 0.042s0.276 0.15 0.365 0.27c0.089 0.121 0.137 0.262 0.137 0.408 0 0.097-0.020 0.192-0.061 0.282s-0.101 0.171-0.176 0.239c-0.076 0.068-0.165 0.123-0.264 0.16s-0.205 0.056-0.312 0.056v-0.003z"></path>
<path d="M12.717 14.47v1.523h-0.314v-1.523h0.314zM13.324 15.12v0.245h-0.693v-0.245h0.693zM13.398 14.47v0.246h-0.766v-0.246h0.766zM14.831 15.196v0.072c0 0.116-0.016 0.22-0.047 0.312s-0.076 0.171-0.133 0.235c-0.057 0.064-0.126 0.113-0.205 0.148s-0.166 0.051-0.263 0.051c-0.096 0-0.183-0.017-0.263-0.051s-0.147-0.083-0.205-0.148c-0.058-0.065-0.103-0.143-0.135-0.235s-0.047-0.196-0.047-0.312v-0.072c0-0.117 0.016-0.22 0.047-0.312s0.076-0.171 0.133-0.235c0.058-0.065 0.126-0.114 0.205-0.149s0.167-0.051 0.263-0.051c0.096 0 0.184 0.017 0.263 0.051s0.148 0.084 0.205 0.149c0.058 0.065 0.103 0.143 0.134 0.235s0.048 0.195 0.048 0.312zM14.514 15.268v-0.074c0-0.081-0.007-0.152-0.022-0.213s-0.036-0.113-0.065-0.155-0.063-0.073-0.105-0.094c-0.041-0.022-0.088-0.032-0.141-0.032s-0.1 0.011-0.141 0.032c-0.040 0.021-0.075 0.052-0.104 0.094s-0.049 0.093-0.064 0.155c-0.015 0.061-0.022 0.133-0.022 0.213v0.074c0 0.080 0.007 0.151 0.022 0.213s0.036 0.113 0.065 0.156c0.029 0.042 0.063 0.074 0.105 0.095s0.088 0.032 0.141 0.032c0.053 0 0.1-0.011 0.141-0.032s0.076-0.053 0.104-0.095c0.028-0.043 0.049-0.094 0.064-0.156s0.022-0.133 0.022-0.213zM15.85 15.594c0-0.027-0.004-0.052-0.013-0.073s-0.022-0.043-0.044-0.061c-0.022-0.019-0.052-0.037-0.091-0.055s-0.090-0.037-0.152-0.057c-0.069-0.022-0.135-0.047-0.197-0.075s-0.116-0.060-0.163-0.097c-0.047-0.038-0.084-0.081-0.111-0.131s-0.040-0.107-0.040-0.173c0-0.063 0.014-0.121 0.042-0.173s0.067-0.097 0.117-0.134c0.050-0.038 0.109-0.067 0.178-0.087s0.145-0.030 0.227-0.030c0.112 0 0.21 0.020 0.294 0.061s0.149 0.096 0.195 0.166c0.047 0.070 0.070 0.151 0.070 0.242h-0.312c0-0.045-0.009-0.084-0.028-0.117s-0.046-0.061-0.084-0.081c-0.037-0.020-0.084-0.029-0.14-0.029-0.054 0-0.1 0.008-0.136 0.025s-0.063 0.038-0.082 0.066c-0.018 0.027-0.027 0.058-0.027 0.092 0 0.026 0.006 0.049 0.019 0.070s0.033 0.040 0.059 0.059 0.058 0.035 0.095 0.051c0.038 0.016 0.081 0.032 0.131 0.047 0.083 0.025 0.156 0.053 0.219 0.085s0.117 0.067 0.159 0.106c0.043 0.039 0.075 0.083 0.096 0.133s0.032 0.106 0.032 0.168c0 0.066-0.013 0.126-0.039 0.178s-0.063 0.097-0.112 0.133c-0.049 0.036-0.107 0.064-0.175 0.083s-0.143 0.028-0.227 0.028c-0.075 0-0.15-0.010-0.223-0.029s-0.14-0.051-0.2-0.091c-0.059-0.040-0.107-0.092-0.142-0.155s-0.053-0.137-0.053-0.223h0.315c0 0.047 0.007 0.088 0.022 0.12s0.035 0.059 0.062 0.080c0.027 0.020 0.059 0.035 0.096 0.044s0.079 0.014 0.123 0.014c0.054 0 0.099-0.008 0.134-0.023s0.062-0.037 0.078-0.064c0.017-0.027 0.026-0.058 0.026-0.092zM17.059 14.47v1.523h-0.313v-1.523h0.313zM17.527 14.47v0.246h-1.243v-0.246h1.243zM18.729 15.748v0.245h-0.811v-0.245h0.811zM18.020 14.47v1.523h-0.314v-1.523h0.314zM18.623 15.090v0.239h-0.705v-0.239h0.705zM18.727 14.47v0.246h-0.81v-0.246h0.81zM18.912 14.47h0.568c0.116 0 0.217 0.017 0.3 0.052s0.149 0.087 0.195 0.155 0.068 0.152 0.068 0.252c0 0.082-0.014 0.152-0.042 0.21s-0.066 0.106-0.116 0.145c-0.049 0.038-0.108 0.069-0.175 0.092l-0.099 0.052h-0.494l-0.002-0.245h0.367c0.055 0 0.101-0.010 0.137-0.029s0.063-0.047 0.082-0.082c0.019-0.035 0.028-0.075 0.028-0.121 0-0.049-0.009-0.091-0.027-0.127s-0.046-0.063-0.083-0.082-0.083-0.028-0.139-0.028h-0.254v1.278h-0.314v-1.523zM19.763 15.993l-0.347-0.679 0.332-0.002 0.352 0.667v0.015h-0.336zM21.411 15.45h-0.388v-0.245h0.388c0.060 0 0.109-0.010 0.146-0.029s0.065-0.048 0.083-0.084c0.017-0.036 0.026-0.076 0.026-0.12s-0.009-0.088-0.026-0.127c-0.017-0.039-0.045-0.070-0.083-0.094s-0.087-0.036-0.146-0.036h-0.279v1.278h-0.314v-1.523h0.593c0.119 0 0.221 0.022 0.307 0.065s0.151 0.101 0.197 0.177c0.045 0.075 0.068 0.161 0.068 0.258 0 0.098-0.023 0.183-0.068 0.255s-0.111 0.127-0.197 0.166c-0.085 0.039-0.187 0.059-0.307 0.059zM23.221 15.748v0.245h-0.811v-0.245h0.811zM22.513 14.47v1.523h-0.314v-1.523h0.314zM23.116 15.090v0.239h-0.705v-0.239h0.705zM23.22 14.47v0.246h-0.81v-0.246h0.81zM24.107 14.47v1.523h-0.313v-1.523h0.313zM24.575 14.47v0.246h-1.243v-0.246h1.243zM25.777 15.748v0.245h-0.811v-0.245h0.811zM25.068 14.47v1.523h-0.314v-1.523h0.314zM25.671 15.090v0.239h-0.705v-0.239h0.705zM25.776 14.47v0.246h-0.81v-0.246h0.81zM25.96 14.47h0.568c0.117 0 0.217 0.017 0.3 0.052s0.149 0.087 0.195 0.155c0.045 0.068 0.068 0.152 0.068 0.252 0 0.082-0.014 0.152-0.042 0.21s-0.066 0.106-0.116 0.145c-0.050 0.038-0.108 0.069-0.175 0.092l-0.099 0.052h-0.494l-0.002-0.245h0.367c0.055 0 0.101-0.010 0.137-0.029s0.063-0.047 0.082-0.082c0.019-0.035 0.028-0.075 0.028-0.121 0-0.049-0.009-0.091-0.027-0.127s-0.046-0.063-0.083-0.082c-0.037-0.019-0.083-0.028-0.139-0.028h-0.254v1.278h-0.314v-1.523zM26.811 15.993l-0.347-0.679 0.332-0.002 0.352 0.667v0.015h-0.336zM28.126 15.594c0-0.027-0.004-0.052-0.013-0.073s-0.022-0.043-0.044-0.061c-0.022-0.019-0.052-0.037-0.091-0.055s-0.090-0.037-0.152-0.057c-0.069-0.022-0.135-0.047-0.197-0.075s-0.116-0.060-0.163-0.097c-0.047-0.038-0.084-0.081-0.111-0.131s-0.040-0.107-0.040-0.173c0-0.063 0.014-0.121 0.042-0.173s0.067-0.097 0.117-0.134c0.050-0.038 0.109-0.067 0.178-0.087s0.145-0.030 0.227-0.030c0.112 0 0.21 0.020 0.294 0.061s0.149 0.096 0.195 0.166c0.047 0.070 0.070 0.151 0.070 0.242h-0.312c0-0.045-0.009-0.084-0.028-0.117s-0.046-0.061-0.084-0.081c-0.037-0.020-0.084-0.029-0.14-0.029-0.054 0-0.1 0.008-0.136 0.025s-0.063 0.038-0.082 0.066c-0.018 0.027-0.027 0.058-0.027 0.092 0 0.026 0.006 0.049 0.019 0.070s0.033 0.040 0.059 0.059 0.058 0.035 0.095 0.051c0.038 0.016 0.081 0.032 0.131 0.047 0.083 0.025 0.156 0.053 0.219 0.085s0.117 0.067 0.159 0.106c0.043 0.039 0.075 0.083 0.096 0.133s0.032 0.106 0.032 0.168c0 0.066-0.013 0.126-0.039 0.178s-0.063 0.097-0.112 0.133c-0.049 0.036-0.107 0.064-0.175 0.083s-0.143 0.028-0.227 0.028c-0.075 0-0.15-0.010-0.223-0.029s-0.14-0.051-0.2-0.091c-0.059-0.040-0.107-0.092-0.142-0.155s-0.053-0.137-0.053-0.223h0.315c0 0.047 0.007 0.088 0.022 0.12s0.035 0.059 0.062 0.080c0.027 0.020 0.059 0.035 0.096 0.044s0.079 0.014 0.123 0.014c0.054 0 0.099-0.008 0.134-0.023s0.062-0.037 0.078-0.064c0.017-0.027 0.026-0.058 0.026-0.092z"></path>
</symbol>
<symbol id="icon-Logo2" viewBox="0 0 37 20">
<path d="M13.146 17.58c0.006 0 0.011 0.001 0.017 0.003s0.010 0.005 0.014 0.009l0.079 0.074c-0.061 0.060-0.137 0.108-0.222 0.141-0.099 0.036-0.207 0.053-0.314 0.051-0.101 0.002-0.202-0.014-0.296-0.047-0.085-0.030-0.161-0.076-0.223-0.133-0.063-0.060-0.112-0.129-0.144-0.206-0.034-0.085-0.051-0.174-0.050-0.264-0.001-0.090 0.017-0.18 0.054-0.265 0.034-0.077 0.086-0.146 0.153-0.206 0.067-0.058 0.148-0.104 0.237-0.134 0.097-0.032 0.201-0.048 0.305-0.047 0.097-0.002 0.193 0.013 0.283 0.043 0.078 0.029 0.15 0.069 0.212 0.119l-0.066 0.079c-0.005 0.006-0.010 0.010-0.017 0.014-0.008 0.005-0.017 0.007-0.027 0.006s-0.020-0.004-0.029-0.008l-0.036-0.021-0.049-0.027c-0.021-0.010-0.043-0.019-0.066-0.026-0.029-0.009-0.059-0.016-0.090-0.021-0.039-0.006-0.078-0.009-0.117-0.008-0.075-0.001-0.149 0.011-0.219 0.035-0.065 0.022-0.123 0.056-0.172 0.099-0.049 0.046-0.087 0.1-0.111 0.158-0.028 0.067-0.041 0.138-0.040 0.209-0.001 0.072 0.013 0.144 0.040 0.212 0.024 0.058 0.061 0.112 0.109 0.158 0.045 0.043 0.101 0.076 0.164 0.098 0.064 0.023 0.133 0.034 0.203 0.034 0.040 0.001 0.080-0.002 0.12-0.007 0.065-0.007 0.127-0.026 0.182-0.056 0.028-0.016 0.054-0.033 0.078-0.052 0.010-0.008 0.023-0.013 0.037-0.013z"></path>
<path d="M15.424 17.207c0.001 0.089-0.017 0.178-0.053 0.262-0.032 0.076-0.083 0.145-0.148 0.203s-0.145 0.104-0.233 0.134c-0.193 0.063-0.406 0.063-0.599 0-0.087-0.030-0.166-0.076-0.232-0.134-0.066-0.059-0.117-0.129-0.15-0.206-0.071-0.17-0.071-0.355 0-0.525 0.034-0.077 0.085-0.147 0.15-0.206 0.066-0.056 0.145-0.1 0.232-0.129 0.193-0.064 0.407-0.064 0.599 0 0.088 0.030 0.167 0.076 0.233 0.134s0.116 0.128 0.149 0.203c0.037 0.084 0.055 0.174 0.053 0.264zM15.217 17.207c0.002-0.072-0.011-0.143-0.037-0.211-0.022-0.058-0.058-0.112-0.106-0.157-0.046-0.043-0.103-0.077-0.167-0.099-0.14-0.046-0.296-0.046-0.436 0-0.063 0.022-0.12 0.056-0.167 0.099-0.048 0.045-0.084 0.099-0.106 0.157-0.050 0.137-0.050 0.284 0 0.421 0.022 0.058 0.058 0.112 0.106 0.158 0.046 0.043 0.103 0.077 0.167 0.099 0.14 0.045 0.295 0.045 0.436 0 0.063-0.022 0.12-0.056 0.167-0.099 0.047-0.046 0.083-0.099 0.106-0.158 0.026-0.068 0.039-0.139 0.037-0.211z"></path>
<path d="M16.977 17.428l0.021 0.047c0.008-0.017 0.015-0.032 0.023-0.047s0.016-0.031 0.026-0.046l0.504-0.782c0.010-0.013 0.019-0.022 0.029-0.024 0.013-0.003 0.027-0.005 0.041-0.004h0.149v1.273h-0.176v-0.936c0-0.012 0-0.025 0-0.040s-0.001-0.029 0-0.044l-0.507 0.793c-0.006 0.012-0.017 0.022-0.030 0.029s-0.028 0.011-0.043 0.011h-0.029c-0.015 0-0.030-0.003-0.043-0.011s-0.023-0.017-0.030-0.029l-0.522-0.798c0 0.015 0 0.030 0 0.045s0 0.029 0 0.040v0.936h-0.171v-1.27h0.149c0.014-0.001 0.028 0.001 0.041 0.004 0.012 0.005 0.022 0.014 0.028 0.024l0.515 0.783c0.010 0.014 0.019 0.030 0.026 0.045z"></path>
<path d="M18.873 17.365v0.477h-0.197v-1.271h0.44c0.083-0.001 0.166 0.008 0.245 0.028 0.064 0.015 0.123 0.042 0.174 0.079 0.044 0.034 0.078 0.077 0.099 0.125 0.023 0.052 0.035 0.107 0.033 0.163 0.001 0.056-0.012 0.111-0.036 0.163-0.024 0.049-0.060 0.092-0.106 0.127-0.051 0.038-0.11 0.067-0.174 0.084-0.077 0.021-0.157 0.031-0.238 0.029l-0.239-0.003zM18.873 17.228h0.239c0.052 0.001 0.103-0.006 0.153-0.019 0.041-0.012 0.078-0.030 0.11-0.055 0.030-0.023 0.053-0.052 0.067-0.084 0.016-0.034 0.024-0.070 0.024-0.107 0.002-0.035-0.004-0.071-0.020-0.104s-0.039-0.063-0.069-0.087c-0.075-0.050-0.17-0.075-0.265-0.068h-0.239v0.524z"></path>
<path d="M21.523 17.843h-0.156c-0.016 0.001-0.031-0.004-0.043-0.012-0.011-0.008-0.020-0.018-0.026-0.029l-0.134-0.307h-0.673l-0.139 0.307c-0.005 0.011-0.014 0.021-0.025 0.029-0.013 0.009-0.028 0.013-0.044 0.013h-0.156l0.592-1.273h0.205l0.599 1.273zM20.547 17.371h0.556l-0.235-0.518c-0.018-0.039-0.033-0.079-0.044-0.12l-0.023 0.067c-0.007 0.020-0.015 0.039-0.022 0.054l-0.233 0.517z"></path>
<path d="M22.375 16.576c0.012 0.006 0.022 0.013 0.030 0.023l0.863 0.959c0-0.015 0-0.030 0-0.045s0-0.029 0-0.042v-0.901h0.176v1.273h-0.099c-0.014 0-0.028-0.002-0.040-0.008s-0.023-0.014-0.032-0.024l-0.862-0.959c0.001 0.015 0.001 0.029 0 0.044s0 0.027 0 0.039v0.907h-0.176v-1.273h0.104c0.012-0 0.024 0.002 0.035 0.006z"></path>
<path d="M24.897 17.337v0.505h-0.197v-0.505l-0.545-0.767h0.176c0.015-0.001 0.030 0.003 0.042 0.011 0.011 0.008 0.020 0.018 0.027 0.029l0.341 0.494c0.014 0.021 0.026 0.040 0.035 0.059s0.018 0.036 0.025 0.054l0.026-0.055c0.010-0.020 0.021-0.039 0.034-0.058l0.336-0.498c0.007-0.010 0.016-0.019 0.026-0.027 0.012-0.009 0.027-0.013 0.042-0.013h0.178l-0.546 0.77z"></path>
<path d="M16.88 14.435c0.086 0.009 0.172 0.017 0.26 0.024 1.33-0.508 2.456-1.341 3.235-2.392s1.179-2.277 1.149-3.521l-1.466-1.253c0.298 1.325 0.159 2.695-0.403 3.957s-1.522 2.365-2.776 3.186z"></path>
<path d="M16.356 14.376l0.039 0.007c1.339-0.818 2.36-1.961 2.931-3.281s0.665-2.755 0.271-4.121l-2.088-1.784c0.845 1.466 1.184 3.107 0.98 4.732s-0.944 3.167-2.134 4.447z"></path>
<path d="M23.438 10.015c-0.355 1.368-1.216 2.601-2.457 3.517-0.362 0.269-0.753 0.509-1.167 0.716 1.010-0.254 1.938-0.702 2.714-1.311s1.376-1.361 1.757-2.2l-0.847-0.723z"></path>
<path d="M23.105 9.814l-1.206-1.030c-0.023 1.174-0.414 2.322-1.132 3.324s-1.737 1.821-2.951 2.373h0.006c0.271-0 0.541-0.014 0.809-0.041 1.134-0.396 2.137-1.025 2.917-1.832s1.315-1.767 1.556-2.793z"></path>
<path d="M16.531 4.445l-1.438-1.231c-1.286 0.425-2.392 1.171-3.173 2.141s-1.201 2.12-1.205 3.297v0c0.005 1.301 0.518 2.564 1.457 3.589s2.252 1.752 3.73 2.067c1.319-1.373 2.092-3.070 2.205-4.844s-0.438-3.533-1.575-5.020z"></path>
<path d="M26.429 9.624c-0.005-1.544-0.725-3.024-2.003-4.115s-3.010-1.707-4.817-1.712c-0.835-0.001-1.663 0.131-2.442 0.388l8.807 7.524c0.302-0.665 0.456-1.372 0.455-2.086z"></path>
</symbol>
<symbol id="icon-Logo1" viewBox="0 0 37 20">
<path d="M17.898 2.119h-0.049c-0.075-0.005-0.15-0.006-0.225-0.008v0h-0.163c-0.142 0-0.286 0.004-0.43 0.011-0.011-0.001-0.022-0.001-0.033 0-1.302 0.074-2.577 0.399-3.756 0.958l-0.154 0.074v7.908l0.361-0.123c0.317-0.109 0.655-0.207 1.005-0.298 0.945-0.243 1.916-0.372 2.891-0.384v1.039c-0.129 0.001-0.255 0.005-0.38 0.011h-0.030c-0.751 0.041-1.496 0.156-2.224 0.341-0.923 0.231-1.813 0.578-2.65 1.033v-10.142c0.869-0.507 1.805-0.887 2.78-1.131 0.856-0.221 1.736-0.335 2.62-0.338h0.153c0.183 0.005 0.361 0.013 0.528 0.025 0.44 0.031 0.877 0.101 1.306 0.208v1.023c-0.416-0.097-0.839-0.161-1.265-0.191-0.009-0.001-0.017-0.001-0.026-0.002-0.088-0.008-0.176-0.015-0.259-0.015zM19.697 3.165c0.227 0.017 0.462 0.025 0.699 0.025 0.929-0.003 1.854-0.122 2.755-0.353 0.922-0.232 1.812-0.579 2.649-1.034v9.961c-0.869 0.507-1.806 0.887-2.781 1.131-0.856 0.22-1.736 0.333-2.62 0.337-0.67 0.005-1.337-0.073-1.988-0.234v-10.025c0.154 0.035 0.312 0.068 0.473 0.095 0.264 0.045 0.542 0.077 0.813 0.097zM24.767 3.242l-0.361 0.122c-0.332 0.112-0.668 0.212-1.005 0.301-0.981 0.252-1.99 0.381-3.002 0.385-0.236 0-0.453-0.006-0.662-0.020l-0.288-0.019v8.135l0.248 0.022c0.229 0.020 0.466 0.030 0.705 0.030 0.798-0.003 1.592-0.106 2.364-0.306 0.636-0.16 1.255-0.382 1.848-0.664l0.154-0.074v-7.91z"></path>
<path d="M12.763 16.147c-0.052-0.054-0.115-0.096-0.184-0.124s-0.144-0.041-0.218-0.038c-0.079-0.001-0.158 0.014-0.232 0.044-0.068 0.027-0.129 0.067-0.181 0.119s-0.091 0.114-0.117 0.182c-0.028 0.071-0.042 0.148-0.042 0.224v1.355c-0.003 0.095 0.015 0.19 0.053 0.278 0.032 0.069 0.078 0.131 0.136 0.182 0.054 0.046 0.118 0.078 0.186 0.096 0.066 0.018 0.134 0.028 0.202 0.028 0.075 0.001 0.15-0.015 0.219-0.047 0.068-0.030 0.129-0.072 0.181-0.125 0.050-0.053 0.090-0.114 0.118-0.182 0.029-0.068 0.044-0.142 0.043-0.216v-0.152h-0.354v0.121c0.001 0.041-0.006 0.082-0.021 0.121-0.012 0.029-0.029 0.055-0.052 0.076-0.022 0.018-0.047 0.031-0.074 0.039-0.024 0.008-0.049 0.012-0.074 0.013-0.032 0.004-0.064-0.001-0.093-0.014s-0.054-0.033-0.073-0.059c-0.033-0.054-0.050-0.118-0.047-0.182v-1.263c-0.002-0.070 0.013-0.14 0.043-0.203 0.018-0.029 0.044-0.051 0.075-0.066s0.065-0.020 0.098-0.016c0.031-0.001 0.061 0.005 0.088 0.019s0.051 0.033 0.070 0.058c0.040 0.052 0.060 0.116 0.059 0.182v0.117h0.351v-0.138c0.001-0.081-0.014-0.162-0.043-0.237-0.026-0.071-0.066-0.136-0.118-0.191z"></path>
<path d="M14.867 16.132c-0.113-0.095-0.255-0.148-0.403-0.149-0.072 0-0.144 0.013-0.211 0.038-0.069 0.025-0.132 0.062-0.187 0.111-0.059 0.053-0.106 0.117-0.137 0.19-0.036 0.083-0.053 0.172-0.052 0.262v1.3c-0.002 0.091 0.015 0.182 0.052 0.266 0.032 0.070 0.079 0.132 0.137 0.182 0.054 0.050 0.118 0.089 0.187 0.114 0.068 0.025 0.139 0.038 0.211 0.038s0.144-0.013 0.211-0.038c0.071-0.026 0.135-0.064 0.192-0.114s0.102-0.112 0.134-0.182c0.036-0.084 0.054-0.175 0.052-0.266v-1.3c0.002-0.090-0.016-0.18-0.052-0.262-0.032-0.072-0.077-0.136-0.134-0.19zM14.702 17.884c0.003 0.035-0.002 0.069-0.014 0.102s-0.032 0.062-0.056 0.086c-0.047 0.039-0.106 0.061-0.167 0.061s-0.12-0.022-0.167-0.061c-0.025-0.024-0.044-0.053-0.056-0.086s-0.017-0.067-0.014-0.102v-1.3c-0.003-0.035 0.002-0.069 0.014-0.102s0.031-0.062 0.056-0.086c0.047-0.039 0.106-0.061 0.167-0.061s0.12 0.022 0.167 0.061c0.025 0.024 0.044 0.053 0.056 0.086s0.017 0.067 0.014 0.102v1.3z"></path>
<path d="M17.631 18.464v-2.46h-0.341l-0.447 1.302h-0.006l-0.451-1.302h-0.337v2.46h0.351v-1.497h0.006l0.344 1.058h0.175l0.347-1.058h0.006v1.497h0.351z"></path>
<path d="M19.628 16.176c-0.054-0.061-0.122-0.107-0.199-0.134-0.082-0.027-0.168-0.040-0.255-0.038h-0.522v2.46h0.351v-0.961h0.181c0.109 0.005 0.218-0.018 0.316-0.067 0.080-0.044 0.146-0.109 0.192-0.188 0.041-0.065 0.068-0.138 0.080-0.214 0.014-0.093 0.020-0.186 0.019-0.28 0.003-0.118-0.008-0.236-0.034-0.351-0.023-0.085-0.068-0.163-0.129-0.226zM19.447 16.926c-0.002 0.045-0.013 0.088-0.033 0.128-0.020 0.038-0.052 0.068-0.090 0.086-0.052 0.023-0.109 0.034-0.165 0.031h-0.16v-0.836h0.181c0.054-0.003 0.109 0.008 0.158 0.031 0.036 0.021 0.065 0.053 0.082 0.091 0.019 0.043 0.030 0.090 0.031 0.137 0 0.052 0 0.106 0 0.163s0.004 0.116 0 0.169h-0.004z"></path>
<path d="M21.288 16.004h-0.287l-0.542 2.46h0.351l0.103-0.529h0.478l0.103 0.529h0.351l-0.556-2.46zM20.965 17.6l0.173-0.892h0.006l0.172 0.892h-0.351z"></path>
<path d="M23.553 17.486h-0.006l-0.529-1.482h-0.337v2.46h0.351v-1.479h0.007l0.536 1.479h0.33v-2.46h-0.351v1.482z"></path>
<path d="M25.696 16.004l-0.282 0.978h-0.007l-0.282-0.978h-0.371l0.482 1.42v1.040h0.351v-1.040l0.482-1.42h-0.371z"></path>
<path d="M11.786 19.159h0.169v0.474h0.115v-0.474h0.168v-0.097h-0.452v0.097z"></path>
<path d="M13.206 19.062l-0.221 0.571h0.122l0.047-0.13h0.228l0.049 0.13h0.125l-0.227-0.571h-0.122zM13.188 19.407l0.078-0.212 0.078 0.212h-0.155z"></path>
<path d="M14.61 19.422h0.132v0.074c-0.039 0.031-0.086 0.048-0.136 0.048-0.023 0.001-0.046-0.003-0.067-0.012s-0.040-0.024-0.054-0.042c-0.030-0.043-0.045-0.096-0.042-0.149 0-0.127 0.055-0.191 0.164-0.191 0.029-0.003 0.058 0.005 0.081 0.021s0.041 0.041 0.048 0.069l0.113-0.022c-0.024-0.112-0.105-0.168-0.242-0.168-0.073-0.002-0.145 0.024-0.2 0.074-0.029 0.028-0.051 0.063-0.065 0.101s-0.020 0.079-0.017 0.119c-0.003 0.078 0.023 0.155 0.073 0.214 0.028 0.029 0.062 0.051 0.099 0.066s0.078 0.021 0.118 0.018c0.089 0.003 0.176-0.030 0.242-0.091v-0.225h-0.248v0.096z"></path>
<path d="M16.044 19.062h-0.116v0.571h0.4v-0.097h-0.285v-0.474z"></path>
<path d="M17.256 19.062h-0.116v0.571h0.116v-0.571z"></path>
<path d="M18.442 19.443l-0.234-0.381h-0.112v0.571h0.108v-0.373l0.229 0.373h0.115v-0.571h-0.106v0.381z"></path>
<path d="M19.513 19.381h0.285v-0.097h-0.285v-0.125h0.306v-0.097h-0.422v0.571h0.434v-0.097h-0.318v-0.154z"></path>
<path d="M22.112 19.287h-0.225v-0.225h-0.115v0.571h0.115v-0.25h0.225v0.25h0.115v-0.571h-0.115v0.225z"></path>
<path d="M23.189 19.381h0.286v-0.097h-0.286v-0.125h0.307v-0.097h-0.422v0.571h0.433v-0.097h-0.318v-0.154z"></path>
<path d="M24.651 19.381c0.099-0.015 0.15-0.068 0.15-0.159 0.003-0.024-0.001-0.049-0.011-0.071s-0.026-0.042-0.045-0.056c-0.052-0.026-0.109-0.038-0.167-0.034h-0.242v0.571h0.115v-0.239h0.023c0.024-0.002 0.049 0.003 0.071 0.013 0.017 0.010 0.031 0.025 0.041 0.042l0.125 0.182h0.137l-0.070-0.112c-0.031-0.055-0.074-0.102-0.126-0.137zM24.536 19.302h-0.085v-0.143h0.090c0.039-0.003 0.079 0.001 0.117 0.014 0.008 0.007 0.015 0.017 0.019 0.027s0.006 0.021 0.006 0.033c-0.001 0.011-0.004 0.022-0.009 0.032s-0.013 0.018-0.022 0.025c-0.038 0.012-0.077 0.016-0.117 0.014z"></path>
<path d="M25.753 19.381h0.285v-0.097h-0.285v-0.125h0.307v-0.097h-0.423v0.571h0.434v-0.097h-0.318v-0.154z"></path>
</symbol>
<symbol id="icon-Logo" viewBox="0 0 37 20">
<path d="M13.571 2.5l2.503 2.384-4.646-0.003v11.569h12.143v-4.423l2.5 2.382v-11.909h-12.5zM23.462 11.747l-7.096-6.761h7.096v6.761zM21.258 14.758h-7.908v-7.781h0.559v7.254h7.349v0.527zM14.927 18.593l-0.295-0.606h-0.243l0.427 0.802v0.467h0.221v-0.467l0.427-0.802h-0.242l-0.295 0.606zM16.014 17.987h0.052l0.48 1.27h-0.23l-0.103-0.297h-0.491l-0.103 0.297h-0.229l0.478-1.27h0.147zM15.781 18.786h0.372l-0.186-0.539-0.186 0.539zM17.315 18.576c-0.010-0.012-0.019-0.024-0.028-0.036-0.033-0.043-0.058-0.085-0.076-0.125s-0.027-0.083-0.027-0.126c0-0.066 0.014-0.123 0.041-0.171s0.066-0.084 0.116-0.11c0.050-0.026 0.108-0.039 0.175-0.039 0.064 0 0.12 0.013 0.167 0.039s0.083 0.060 0.108 0.102c0.026 0.042 0.038 0.089 0.038 0.139 0 0.040-0.007 0.077-0.022 0.11s-0.035 0.063-0.060 0.091c-0.026 0.027-0.055 0.053-0.089 0.078l-0.088 0.064 0.251 0.297c0.008-0.016 0.016-0.033 0.023-0.051 0.022-0.056 0.032-0.118 0.032-0.186h0.181c0 0.062-0.006 0.12-0.018 0.175s-0.031 0.106-0.057 0.153c-0.011 0.020-0.023 0.038-0.036 0.056l0.186 0.219h-0.243l-0.074-0.087c-0.040 0.030-0.083 0.054-0.13 0.071-0.062 0.022-0.127 0.033-0.197 0.033-0.084 0-0.157-0.015-0.219-0.046s-0.109-0.073-0.143-0.127c-0.033-0.054-0.050-0.116-0.050-0.186 0-0.052 0.011-0.097 0.032-0.136s0.051-0.076 0.088-0.11c0.034-0.031 0.073-0.062 0.117-0.093zM17.419 18.703l-0.026 0.019c-0.031 0.025-0.054 0.049-0.069 0.072s-0.024 0.044-0.029 0.063c-0.005 0.019-0.007 0.036-0.007 0.051 0 0.037 0.008 0.071 0.024 0.101s0.040 0.054 0.071 0.072c0.031 0.017 0.069 0.026 0.114 0.026 0.048 0 0.095-0.011 0.14-0.032 0.023-0.011 0.044-0.024 0.065-0.040l-0.282-0.332zM17.469 18.471l0.078-0.052c0.037-0.024 0.063-0.048 0.078-0.072s0.024-0.053 0.024-0.089c0-0.030-0.012-0.058-0.035-0.084s-0.056-0.038-0.099-0.038c-0.030 0-0.055 0.007-0.075 0.021s-0.036 0.031-0.046 0.054c-0.010 0.022-0.015 0.047-0.015 0.074 0 0.026 0.007 0.053 0.020 0.081s0.032 0.056 0.055 0.086c0.005 0.006 0.010 0.012 0.015 0.018zM19.69 18.843h-0.218c-0.006 0.055-0.020 0.102-0.040 0.14s-0.049 0.067-0.088 0.086c-0.038 0.020-0.089 0.030-0.151 0.030-0.051 0-0.095-0.010-0.132-0.031s-0.067-0.049-0.091-0.086c-0.023-0.037-0.041-0.082-0.052-0.133s-0.017-0.11-0.017-0.174v-0.107c0-0.067 0.006-0.127 0.018-0.18s0.032-0.097 0.057-0.133c0.025-0.036 0.056-0.063 0.093-0.082s0.081-0.028 0.131-0.028c0.061 0 0.11 0.010 0.148 0.031s0.066 0.050 0.085 0.089c0.020 0.039 0.033 0.086 0.038 0.14h0.218c-0.009-0.085-0.033-0.16-0.072-0.226s-0.092-0.117-0.162-0.154c-0.070-0.037-0.155-0.056-0.256-0.056-0.080 0-0.151 0.014-0.215 0.042s-0.118 0.068-0.163 0.121c-0.045 0.052-0.080 0.115-0.105 0.189s-0.036 0.156-0.036 0.248v0.106c0 0.091 0.012 0.174 0.035 0.248s0.058 0.137 0.103 0.189c0.045 0.052 0.099 0.092 0.161 0.12s0.133 0.042 0.212 0.042c0.102 0 0.189-0.019 0.261-0.056s0.127-0.088 0.167-0.153c0.040-0.065 0.063-0.139 0.070-0.222zM20.902 18.657v-0.070c0-0.096-0.013-0.182-0.038-0.257s-0.061-0.141-0.107-0.194c-0.047-0.054-0.102-0.095-0.167-0.123s-0.136-0.043-0.214-0.043c-0.078 0-0.149 0.014-0.214 0.043s-0.119 0.069-0.167 0.123c-0.047 0.053-0.083 0.118-0.108 0.194s-0.038 0.161-0.038 0.257v0.070c0 0.096 0.013 0.182 0.038 0.258s0.063 0.141 0.11 0.194c0.047 0.053 0.103 0.094 0.167 0.123s0.136 0.042 0.214 0.042c0.078 0 0.15-0.014 0.214-0.042s0.12-0.069 0.166-0.123c0.047-0.053 0.082-0.118 0.107-0.194s0.038-0.162 0.038-0.258zM20.683 18.585v0.072c0 0.071-0.007 0.134-0.021 0.188s-0.033 0.101-0.059 0.139c-0.026 0.037-0.058 0.065-0.096 0.085s-0.081 0.028-0.13 0.028c-0.048 0-0.091-0.009-0.129-0.028s-0.070-0.047-0.098-0.085c-0.027-0.038-0.047-0.084-0.061-0.139s-0.021-0.117-0.021-0.188v-0.072c0-0.071 0.007-0.133 0.021-0.187s0.034-0.1 0.060-0.137c0.027-0.037 0.059-0.065 0.097-0.084s0.081-0.029 0.129-0.029 0.092 0.010 0.13 0.029c0.038 0.019 0.071 0.047 0.097 0.084s0.047 0.082 0.060 0.137c0.014 0.054 0.021 0.117 0.021 0.187z"></path>
</symbol>
<symbol id="icon-linkedin" viewBox="0 0 20 20">
<path d="M19.995 20v-0.001h0.005v-7.335c0-3.588-0.773-6.353-4.968-6.353-2.017 0-3.37 1.107-3.923 2.156h-0.058v-1.821h-3.978v13.353h4.142v-6.612c0-1.741 0.33-3.424 2.486-3.424 2.124 0 2.156 1.987 2.156 3.536v6.501h4.138z"></path>
<path d="M0.33 6.647h4.147v13.353h-4.147v-13.353z"></path>
<path d="M2.402-0c-1.326 0-2.402 1.076-2.402 2.402s1.076 2.424 2.402 2.424c1.326 0 2.402-1.098 2.402-2.424s-1.077-2.402-2.402-2.402v0z"></path>
</symbol>
<symbol id="icon-facebook" viewBox="0 0 20 20">
<path d="M13.331 3.321h1.826v-3.18c-0.315-0.043-1.398-0.141-2.66-0.141-2.633 0-4.436 1.656-4.436 4.699v2.801h-2.905v3.555h2.905v8.945h3.562v-8.944h2.787l0.442-3.555h-3.231v-2.449c0.001-1.027 0.277-1.731 1.709-1.731z"></path>
</symbol>
<symbol id="icon-twitter" viewBox="0 0 20 20">
<path d="M20 3.799c-0.744 0.326-1.536 0.543-2.363 0.647 0.85-0.507 1.499-1.305 1.804-2.266-0.793 0.472-1.668 0.806-2.6 0.992-0.753-0.801-1.825-1.298-2.995-1.298-2.27 0-4.098 1.843-4.098 4.101 0 0.325 0.027 0.637 0.095 0.935-3.409-0.166-6.425-1.8-8.451-4.289-0.354 0.614-0.561 1.316-0.561 2.073 0 1.42 0.731 2.679 1.821 3.408-0.659-0.013-1.305-0.204-1.852-0.505 0 0.013 0 0.029 0 0.045 0 1.992 1.421 3.647 3.285 4.029-0.334 0.091-0.697 0.135-1.075 0.135-0.263 0-0.527-0.015-0.776-0.070 0.531 1.624 2.039 2.818 3.831 2.856-1.395 1.091-3.166 1.749-5.084 1.749-0.336 0-0.659-0.015-0.981-0.056 1.816 1.171 3.969 1.84 6.29 1.84 7.545 0 11.67-6.25 11.67-11.668 0-0.181-0.006-0.356-0.015-0.53 0.814-0.577 1.497-1.299 2.055-2.129z"></path>
</symbol>
<symbol id="icon-instagram" viewBox="0 0 20 20">
<path d="M19.98 5.88c-0.047-1.063-0.219-1.793-0.465-2.426-0.254-0.672-0.645-1.274-1.157-1.774-0.5-0.508-1.106-0.903-1.77-1.153-0.637-0.246-1.363-0.418-2.426-0.465-1.071-0.051-1.411-0.063-4.126-0.063s-3.055 0.012-4.122 0.059c-1.063 0.047-1.793 0.219-2.426 0.465-0.672 0.254-1.274 0.645-1.774 1.157-0.508 0.5-0.902 1.106-1.153 1.77-0.246 0.637-0.418 1.363-0.465 2.426-0.051 1.071-0.063 1.41-0.063 4.126s0.012 3.055 0.059 4.122c0.047 1.063 0.219 1.793 0.465 2.426 0.254 0.672 0.648 1.274 1.156 1.774 0.5 0.508 1.106 0.903 1.77 1.152 0.637 0.246 1.363 0.418 2.426 0.465 1.067 0.047 1.407 0.059 4.122 0.059s3.055-0.012 4.122-0.059c1.063-0.047 1.793-0.219 2.426-0.465 1.344-0.52 2.407-1.582 2.927-2.926 0.246-0.637 0.418-1.364 0.465-2.426 0.047-1.067 0.059-1.407 0.059-4.122s-0.004-3.055-0.051-4.122zM18.179 14.046c-0.043 0.977-0.207 1.504-0.344 1.856-0.336 0.871-1.028 1.563-1.899 1.899-0.352 0.137-0.883 0.301-1.856 0.344-1.055 0.047-1.371 0.058-4.040 0.058s-2.989-0.012-4.040-0.058c-0.977-0.043-1.504-0.207-1.856-0.344-0.434-0.16-0.828-0.414-1.149-0.746-0.332-0.324-0.586-0.715-0.746-1.149-0.137-0.352-0.301-0.883-0.344-1.856-0.047-1.055-0.059-1.371-0.059-4.040s0.012-2.989 0.059-4.040c0.043-0.977 0.207-1.504 0.344-1.856 0.16-0.434 0.414-0.828 0.75-1.149 0.324-0.332 0.715-0.586 1.149-0.746 0.352-0.137 0.883-0.301 1.856-0.344 1.055-0.047 1.371-0.059 4.040-0.059 2.672 0 2.989 0.012 4.040 0.059 0.977 0.043 1.504 0.207 1.856 0.344 0.433 0.16 0.828 0.414 1.149 0.746 0.332 0.324 0.586 0.715 0.746 1.149 0.137 0.352 0.301 0.883 0.344 1.856 0.047 1.055 0.059 1.371 0.059 4.040s-0.012 2.981-0.059 4.036z"></path>
<path d="M10.037 4.864c-2.836 0-5.138 2.301-5.138 5.138s2.301 5.138 5.138 5.138c2.837 0 5.138-2.301 5.138-5.138s-2.301-5.138-5.138-5.138zM10.037 13.334c-1.84 0-3.333-1.492-3.333-3.333s1.493-3.333 3.333-3.333c1.84 0 3.333 1.492 3.333 3.333s-1.492 3.333-3.333 3.333z"></path>
<path d="M16.578 4.661c0 0.662-0.537 1.199-1.199 1.199s-1.199-0.537-1.199-1.199c0-0.663 0.537-1.199 1.199-1.199s1.199 0.537 1.199 1.199z"></path>
</symbol>
<symbol id="icon-clock" viewBox="0 0 20 20">
<path d="M19.56 9.563c-0.001-5.283-4.285-9.564-9.567-9.563s-9.564 4.285-9.563 9.567c0.001 4.161 2.692 7.844 6.656 9.11 0.038 0.012 0.077 0.018 0.117 0.018 0.075-0 0.149-0.020 0.214-0.059 0.084-0.050 0.147-0.129 0.177-0.223l2.416-7.656c0.66-0.003 1.193-0.542 1.189-1.202s-0.541-1.193-1.202-1.19c-0.178 0.001-0.353 0.042-0.513 0.12l-3.191-3.192c-0.158-0.153-0.411-0.148-0.563 0.010-0.149 0.155-0.149 0.399 0 0.554l3.19 3.193c-0.245 0.5-0.105 1.103 0.335 1.443l-2.302 7.296c-4.549-1.676-6.878-6.721-5.202-11.27s6.721-6.878 11.27-5.202c4.549 1.676 6.878 6.721 5.202 11.27-0.819 2.222-2.501 4.019-4.664 4.983l-0.249-1.171c-0.045-0.215-0.257-0.353-0.472-0.307-0.068 0.014-0.131 0.046-0.183 0.093l-2.398 2.141c-0.164 0.146-0.179 0.398-0.033 0.563 0.048 0.053 0.109 0.093 0.177 0.115l3.062 0.977c0.209 0.067 0.434-0.048 0.501-0.258 0.021-0.066 0.025-0.137 0.011-0.205l-0.244-1.149c3.54-1.492 5.839-4.964 5.831-8.806zM9.995 9.165c0.22 0 0.399 0.178 0.399 0.399s-0.179 0.399-0.399 0.399c-0.22 0-0.399-0.178-0.399-0.399s0.178-0.399 0.399-0.399zM11.308 18.455l1.365-1.218 0.377 1.775-1.742-0.558z"></path>
<path d="M9.597 1.991v0.797c0 0.22 0.178 0.399 0.399 0.399s0.399-0.178 0.399-0.399v-0.797c0-0.22-0.179-0.399-0.399-0.399s-0.399 0.179-0.399 0.399z"></path>
<path d="M2.422 9.165c-0.22 0-0.399 0.179-0.399 0.399s0.178 0.399 0.399 0.399h0.797c0.22 0 0.399-0.178 0.399-0.399s-0.178-0.399-0.399-0.399h-0.797z"></path>
<path d="M17.568 9.962c0.22 0 0.399-0.178 0.399-0.399s-0.178-0.399-0.399-0.399h-0.797c-0.22 0-0.399 0.179-0.399 0.399s0.179 0.399 0.399 0.399h0.797z"></path>
</symbol>
<symbol id="icon-diagram" viewBox="0 0 20 20">
<path d="M9.328 9.353h0.666v2.998h-0.666v-2.998z"></path>
<path d="M11.994 10.686h0.666v1.666h-0.666v-1.666z"></path>
<path d="M6.663 11.685h0.666v0.666h-0.666v-0.666z"></path>
<path d="M4.664 11.352h0.666v0.999h-0.666v-0.999z"></path>
<path d="M0.999 17.682h15.992c0.552 0 0.999-0.447 0.999-0.999v-1.333c0-0.552-0.448-0.999-0.999-0.999h-0.333v-8.308l1.892-1.793c0.439 0.217 0.971 0.085 1.258-0.312s0.247-0.943-0.095-1.293-0.888-0.402-1.291-0.124c-0.403 0.279-0.546 0.807-0.339 1.251l-1.426 1.352v-0.769c0-0.552-0.448-0.999-0.999-0.999h-13.326c-0.552 0-0.999 0.448-0.999 0.999v9.995h-0.333c-0.552 0-0.999 0.447-0.999 0.999v1.333c0 0.552 0.448 0.999 0.999 0.999zM18.99 3.023c0.184 0 0.333 0.149 0.333 0.333s-0.149 0.333-0.333 0.333c-0.184 0-0.333-0.149-0.333-0.333s0.149-0.333 0.333-0.333zM1.999 4.356c0-0.184 0.149-0.333 0.333-0.333h13.326c0.184 0 0.333 0.149 0.333 0.333v1.399l-0.666 0.633v-1.366c0-0.184-0.149-0.333-0.333-0.333h-11.994c-0.184 0-0.333 0.149-0.333 0.333v8.329c0 0.184 0.149 0.333 0.333 0.333h11.994c0.184 0 0.333-0.149 0.333-0.333v-6.046l0.666-0.631v7.677h-13.993v-9.995zM4.997 8.687c-0.451-0.001-0.847 0.299-0.966 0.733s0.066 0.895 0.453 1.125c0.387 0.23 0.881 0.172 1.205-0.141l1.158 0.581c0.135 0.067 0.298 0.036 0.398-0.077l2.462-2.77 2.42 1.813c0.13 0.097 0.311 0.087 0.429-0.025l2.103-1.992v5.082h-11.327v-7.663h11.327v1.663l-2.357 2.232-2.44-1.829c-0.139-0.104-0.334-0.084-0.449 0.045l-2.496 2.808-0.933-0.467c0.007-0.040 0.011-0.080 0.013-0.121 0-0.552-0.448-0.999-0.999-0.999zM5.331 9.686c0 0.184-0.149 0.333-0.333 0.333s-0.333-0.149-0.333-0.333c0-0.184 0.149-0.333 0.333-0.333s0.333 0.149 0.333 0.333zM7.329 15.017h3.332v0.333c0 0.184-0.149 0.333-0.333 0.333h-2.665c-0.184 0-0.333-0.149-0.333-0.333v-0.333zM0.666 15.35c0-0.184 0.149-0.333 0.333-0.333h5.664v0.333c0 0.552 0.447 0.999 0.999 0.999h2.665c0.552 0 0.999-0.448 0.999-0.999v-0.333h5.664c0.184 0 0.333 0.149 0.333 0.333v1.333c0 0.184-0.149 0.333-0.333 0.333h-15.992c-0.184 0-0.333-0.149-0.333-0.333v-1.333z"></path>
</symbol>
<symbol id="icon-astronaut" viewBox="0 0 20 20">
<path d="M19.984 2.828c-0.039-0.12-0.143-0.208-0.269-0.227l-1.194-0.174-0.534-1.082c-0.112-0.228-0.486-0.228-0.598 0l-0.534 1.082-1.194 0.174c-0.126 0.018-0.23 0.106-0.269 0.227s-0.007 0.253 0.084 0.342l0.864 0.842-0.204 1.189c-0.021 0.125 0.030 0.251 0.132 0.326 0.104 0.075 0.239 0.085 0.351 0.025l1.068-0.562 1.068 0.562c0.049 0.026 0.102 0.038 0.155 0.038 0.069 0 0.138-0.021 0.196-0.064 0.103-0.075 0.154-0.201 0.132-0.326l-0.204-1.189 0.864-0.842c0.091-0.089 0.123-0.221 0.084-0.342zM18.444 3.657c-0.078 0.076-0.114 0.187-0.096 0.295l0.119 0.696-0.625-0.329c-0.049-0.026-0.102-0.038-0.155-0.038s-0.106 0.013-0.155 0.038l-0.625 0.329 0.119-0.696c0.019-0.108-0.017-0.218-0.096-0.295l-0.506-0.493 0.699-0.102c0.109-0.016 0.202-0.084 0.251-0.182l0.313-0.633 0.313 0.633c0.049 0.098 0.142 0.167 0.251 0.182l0.699 0.102-0.506 0.493z"></path>
<path d="M16.333 12.826h-0.667v0.667h0.667v-0.667z"></path>
<path d="M16.333 14.16h-0.667v0.667h0.667v-0.667z"></path>
<path d="M17 13.493h-0.667v0.667h0.667v-0.667z"></path>
<path d="M15.667 13.493h-0.667v0.667h0.667v-0.667z"></path>
<path d="M14 16.493h-0.667v0.667h0.667v-0.667z"></path>
<path d="M14 17.826h-0.667v0.667h0.667v-0.667z"></path>
<path d="M14.667 17.16h-0.667v0.667h0.667v-0.667z"></path>
<path d="M13.333 17.16h-0.667v0.667h0.667v-0.667z"></path>
<path d="M10 15.16h-0.667v0.667h0.667v-0.667z"></path>
<path d="M10 16.493h-0.667v0.667h0.667v-0.667z"></path>
<path d="M10.667 15.826h-0.667v0.667h0.667v-0.667z"></path>
<path d="M9.333 15.826h-0.667v0.667h0.667v-0.667z"></path>
<path d="M3.667 3.826h-0.667v0.667h0.667v-0.667z"></path>
<path d="M3.667 5.16h-0.667v0.667h0.667v-0.667z"></path>
<path d="M4.333 4.493h-0.667v0.667h0.667v-0.667z"></path>
<path d="M3 4.493h-0.667v0.667h0.667v-0.667z"></path>
<path d="M15.447 8.85c-0.18-0.242-0.443-0.398-0.743-0.44-0.301-0.043-0.597 0.036-0.837 0.22l-0.783 0.6-1.186 0.886-0.849-0.338c1.513-0.679 2.571-2.193 2.571-3.95 0-2.389-1.952-4.333-4.351-4.333s-4.351 1.944-4.351 4.333c0 0.866 0.259 1.671 0.7 2.349l-1.727-0.015c-0.001 0-0.002 0-0.003 0-0.005 0-0.010 0.003-0.015 0.003-0.033 0.001-0.065 0.008-0.097 0.019-0.008 0.003-0.016 0.005-0.024 0.008-0.004 0.002-0.008 0.002-0.012 0.004l-2.021 0.998c-0 0-0.001 0-0.001 0l-1.183 0.569c-0.013 0.006-0.026 0.013-0.039 0.022-0.472 0.314-0.632 0.931-0.374 1.435 0.138 0.268 0.372 0.465 0.66 0.556 0.111 0.035 0.224 0.052 0.337 0.052 0.181 0 0.36-0.044 0.525-0.132l0.867-0.461 1.415-0.731 0.848-0.005-3.401 3.385c-0 0-0.001 0-0.001 0.001l-0.837 0.833c-0.198 0.197-0.306 0.458-0.306 0.736s0.109 0.54 0.306 0.737c0.203 0.202 0.47 0.303 0.737 0.303s0.534-0.101 0.738-0.303l0.821-0.818 1.088-0.812 0.563 0.561-1.101 1.096c-0 0-0.001 0-0.001 0.001l-0.837 0.833c-0.198 0.197-0.306 0.458-0.306 0.736s0.109 0.54 0.306 0.737c0.203 0.202 0.47 0.303 0.737 0.303s0.534-0.101 0.738-0.303l2.176-2.167c0-0 0-0.001 0.001-0.001l0.631-0.625-0.002-0.002c0.004-0.004 0.010-0.005 0.014-0.010l3.229-3.536 2.169 0.309c0.016 0.002 0.031 0.003 0.047 0.003 0.040 0 0.079-0.010 0.117-0.024 0.011-0.004 0.021-0.009 0.031-0.015 0.012-0.006 0.025-0.009 0.036-0.017l2.008-1.333c0.007-0.005 0.011-0.013 0.018-0.018s0.018-0.009 0.025-0.016l0.795-0.744c0.413-0.387 0.47-1.022 0.132-1.476zM1.332 11.106c-0.108 0.058-0.231 0.070-0.349 0.032s-0.211-0.116-0.267-0.224c-0.101-0.196-0.042-0.435 0.134-0.564l0.821-0.395 0.281 0.82-0.62 0.33zM3.517 9.964l-0.968 0.5-0.274-0.802 1.267-0.625-0.025 0.927zM12.954 5.826c0 0.574-0.137 1.115-0.374 1.6l-2.613-1.187c-0.027-0.358-0.213-0.672-0.493-0.867l0.915-3.038c1.486 0.473 2.565 1.859 2.565 3.492zM5.586 5.826c0-2.022 1.653-3.667 3.684-3.667 0.158 0 0.313 0.013 0.466 0.033l-0.895 2.971c-0.012-0-0.023-0.004-0.036-0.004-0.645 0-1.17 0.523-1.17 1.167s0.525 1.167 1.17 1.167c0.434 0 0.809-0.24 1.011-0.59l2.414 1.097c-0.672 0.904-1.747 1.494-2.96 1.494-2.031 0-3.684-1.645-3.684-3.667zM9.309 6.326c0 0.276-0.226 0.5-0.504 0.5s-0.504-0.224-0.504-0.5c0-0.276 0.226-0.5 0.504-0.5s0.504 0.224 0.504 0.5zM1.541 15.716c-0.148 0.146-0.387 0.146-0.534 0-0.071-0.071-0.11-0.165-0.11-0.264s0.039-0.193 0.11-0.263l0.601-0.599 0.532 0.53-0.599 0.597zM3.549 18.050c-0.148 0.146-0.387 0.147-0.534 0-0.071-0.071-0.11-0.165-0.11-0.264s0.039-0.193 0.11-0.263l0.602-0.599 0.532 0.53-0.6 0.597zM5.725 15.882c-0 0-0.001 0-0.001 0.001l-1.103 1.1-0.532-0.53 1.102-1.097c0 0 0 0 0-0s0.001-0 0.001-0.001c0.025-0.025 0.041-0.055 0.056-0.085 0.004-0.009 0.013-0.016 0.016-0.025 0.010-0.026 0.012-0.053 0.016-0.080 0.002-0.015 0.009-0.030 0.009-0.045 0-0.022-0.008-0.044-0.013-0.066-0.004-0.020-0.004-0.040-0.012-0.060-0.013-0.031-0.034-0.059-0.057-0.086-0.006-0.007-0.009-0.017-0.016-0.024 0 0 0 0-0 0s-0-0.001-0.001-0.001l-1.004-1c-0.011-0.011-0.024-0.015-0.036-0.024-0.018-0.014-0.035-0.026-0.054-0.036s-0.038-0.015-0.058-0.020c-0.021-0.006-0.042-0.011-0.064-0.012-0.020-0.001-0.039 0.001-0.060 0.003-0.022 0.003-0.043 0.006-0.065 0.013s-0.040 0.017-0.059 0.028c-0.012 0.007-0.026 0.009-0.038 0.018l-1.108 0.827-0.563-0.561 1.499-1.491 2.725 2.68-0.58 0.574zM9.987 11.496c-0.010-0.001-0.019 0.002-0.028 0.002-0.024-0.001-0.048 0-0.072 0.004-0.019 0.003-0.037 0.007-0.055 0.013-0.021 0.007-0.041 0.017-0.060 0.029-0.019 0.011-0.036 0.023-0.052 0.038-0.008 0.007-0.018 0.010-0.025 0.018l-2.936 3.216-2.705-2.66 1.771-1.761c0.13-0.13 0.131-0.341 0.001-0.472-0.066-0.066-0.152-0.098-0.238-0.098v-0l-1.387 0.008 0.017-1.005 1.94 0.017c0.791 0.809 1.893 1.313 3.113 1.313 0.273 0 0.54-0.028 0.8-0.077 0.025 0.020 0.050 0.040 0.081 0.053l1.506 0.6 0.095 0.474 0.111 0.553-1.877-0.267zM12.513 11.608l-0.196-0.974 0.904-0.675 0.592 0.785-1.3 0.863zM14.859 9.838l-0.524 0.491-0.582-0.773 0.52-0.398c0.097-0.075 0.219-0.105 0.339-0.089 0.121 0.017 0.227 0.080 0.3 0.178 0.135 0.182 0.112 0.437-0.053 0.592z"></path>
<path d="M8.501 11.59l-1.339-1.333c-0.13-0.13-0.34-0.13-0.47 0l-1.339 1.333c-0.063 0.063-0.098 0.148-0.098 0.236s0.035 0.174 0.098 0.236l1.339 1.333c0.065 0.065 0.15 0.097 0.235 0.097s0.17-0.032 0.235-0.097l1.339-1.333c0.063-0.063 0.098-0.148 0.098-0.236s-0.035-0.174-0.098-0.236zM6.927 12.689l-0.867-0.863 0.867-0.863 0.867 0.863-0.867 0.863z"></path>
<path d="M10.728 3.169l-0.161 0.647c0.044 0.011 1.086 0.282 1.086 1.343h0.667c-0-1.261-1.041-1.853-1.592-1.99z"></path>
<path d="M12.319 5.826h-0.667v0.667h0.667v-0.667z"></path>
</symbol>
<symbol id="icon-antenna" viewBox="0 0 20 20">
<path d="M19.233 13.811l-5.277-5.316 0.586-2.885c0.151 0.059 0.312 0.090 0.474 0.091h0.004c0.745 0.009 1.356-0.588 1.365-1.333s-0.588-1.356-1.333-1.365c-0.745-0.009-1.356 0.588-1.365 1.333-0.002 0.159 0.024 0.318 0.078 0.468l-3.1 0.378-5.057-5.083c-0.062-0.063-0.147-0.099-0.235-0.1-0.088 0-0.171 0.035-0.233 0.097l-0.945 0.94c-0.13 0.13-0.13 0.341 0 0.471l0.509 0.516c-1.971 3.624-1.331 8.111 1.575 11.039 0.027 0.026 0.058 0.046 0.091 0.061-0.021 0.113-0.032 0.227-0.033 0.342v3.867h-4c-0.92 0.001-1.666 0.747-1.667 1.667v0.667c0 0.184 0.149 0.333 0.333 0.333h15.333c0.184 0 0.333-0.149 0.333-0.333v-0.667c-0.001-0.92-0.747-1.666-1.667-1.667h-4v-1.714c0.627 0.131 1.265 0.198 1.905 0.2 1.536-0.002 3.048-0.385 4.4-1.115l0.511 0.514c0.062 0.063 0.147 0.099 0.235 0.1 0.088-0 0.171-0.035 0.233-0.097l0.945-0.94c0.13-0.13 0.13-0.341 0-0.471zM14.55 3.896c0.261-0.26 0.683-0.258 0.943 0.003s0.258 0.683-0.003 0.943c-0.125 0.124-0.294 0.194-0.47 0.194h-0.002c-0.368-0.002-0.665-0.302-0.663-0.67 0.001-0.176 0.072-0.345 0.197-0.469h-0.001zM13.765 6.086l-0.374 1.841-0.735-0.739 1.109-1.102zM13.387 5.522l-1.2 1.193-0.928-0.933 2.128-0.26zM15.003 18c0.552 0 1 0.448 1 1v0.333h-14.667v-0.333c0-0.552 0.448-1 1-1h12.667zM10.336 16.667v0.667h-3.333v-0.667h3.333zM7.003 16v-2.533c0-0.809 0.748-1.467 1.667-1.467s1.667 0.658 1.667 1.467v2.533h-3.333zM11.003 14.94v-1.473c0-1.176-1.047-2.133-2.333-2.133-0.832-0.013-1.61 0.411-2.051 1.116-2.536-2.671-3.107-6.653-1.424-9.929l11.626 11.693c-1.795 0.913-3.853 1.17-5.818 0.727zM18.058 14.513l-13.161-13.238 0.472-0.47 4.959 4.987c0.002 0 0.004 0.004 0.006 0.006l8.197 8.245-0.473 0.47z"></path>
<path d="M8.672 12.667h-0.003c-0.552-0.001-1.001 0.446-1.002 0.998s0.446 1.001 0.998 1.002h0.003c0.552 0.001 1.001-0.446 1.002-0.998s-0.446-1.001-0.998-1.002zM8.906 13.903c-0.063 0.062-0.148 0.097-0.236 0.097-0.184-0.001-0.333-0.151-0.332-0.335 0-0.088 0.036-0.172 0.098-0.235s0.146-0.097 0.233-0.097c0.184 0.001 0.333 0.151 0.332 0.335-0 0.088-0.036 0.172-0.098 0.235h0.003z"></path>
</symbol>
<symbol id="icon-phone" viewBox="0 0 20 20">
<path stroke-linejoin="round" stroke-linecap="round" stroke-miterlimit="4" stroke-width="0.8333" d="M16.666 13.336v2.011c0.002 0.378-0.156 0.738-0.434 0.993s-0.651 0.381-1.027 0.347c-2.063-0.224-4.044-0.929-5.786-2.058-1.62-1.029-2.993-2.403-4.022-4.022-1.133-1.749-1.838-3.74-2.058-5.812-0.034-0.375 0.091-0.747 0.345-1.025s0.613-0.436 0.989-0.437h2.011c0.673-0.007 1.247 0.487 1.341 1.153 0.085 0.644 0.242 1.276 0.469 1.884 0.184 0.49 0.066 1.042-0.302 1.415l-0.851 0.851c0.954 1.678 2.344 3.068 4.022 4.022l0.851-0.851c0.372-0.368 0.925-0.486 1.415-0.302 0.608 0.227 1.24 0.384 1.884 0.469 0.674 0.095 1.17 0.68 1.153 1.361z"></path>
</symbol>
<symbol id="icon-mail" viewBox="0 0 27 20">
<path d="M23.333 0h-20c-1.375 0-2.487 1.125-2.487 2.5l-0.012 15c0 1.375 1.125 2.5 2.5 2.5h20c1.375 0 2.5-1.125 2.5-2.5v-15c0-1.375-1.125-2.5-2.5-2.5zM22.833 5.313l-8.838 5.525c-0.4 0.25-0.925 0.25-1.325 0l-8.838-5.525c-0.313-0.2-0.5-0.538-0.5-0.9 0-0.838 0.913-1.338 1.625-0.9l8.375 5.238 8.375-5.238c0.713-0.438 1.625 0.062 1.625 0.9 0 0.362-0.187 0.7-0.5 0.9z"></path>
</symbol>
<symbol id="icon-map-pin" viewBox="0 0 20 20">
<path stroke-linejoin="round" stroke-linecap="round" stroke-miterlimit="4" stroke-width="0.8333" d="M16.667 8.636c0 4.773-6.667 8.864-6.667 8.864s-6.667-4.091-6.667-8.864c0-3.389 2.985-6.136 6.667-6.136s6.667 2.747 6.667 6.136v0z"></path>
<path stroke-linejoin="round" stroke-linecap="round" stroke-miterlimit="4" stroke-width="0.8333" d="M10 11.667c1.381 0 2.5-1.119 2.5-2.5s-1.119-2.5-2.5-2.5-2.5 1.119-2.5 2.5c0 1.381 1.119 2.5 2.5 2.5z"></path>
</symbol>
<symbol id="icon-Logo6" viewBox="0 0 25 20">
<path d="M13.982 6.025l-0.468-0.357c-0.073-0.059-0.167-0.087-0.26-0.078s-0.18 0.055-0.24 0.128l-6.475 7.436 0.1 0.111 1.604-1.479c-0.053-0.022-0.098-0.061-0.125-0.112s-0.036-0.109-0.025-0.166c0.011-0.056 0.042-0.107 0.087-0.143s0.101-0.055 0.159-0.054c0.052 0 0.103 0.017 0.144 0.047s0.073 0.074 0.088 0.124l2.114-1.961c0.032-0.026 0.073-0.040 0.114-0.040s0.082 0.014 0.114 0.040l0.107 0.079c0.036 0.026 0.081 0.037 0.125 0.032s0.085-0.027 0.114-0.061l2.764-3.1c0.029-0.031 0.052-0.067 0.066-0.108s0.019-0.083 0.015-0.125c-0.004-0.042-0.017-0.083-0.038-0.12s-0.050-0.069-0.085-0.093z"></path>
<path d="M17.025 8.118c-1.417 1.008-3.004 1.752-4.686 2.196-1.669 0.424-3.376 0.678-5.096 0.757 0.035 0.254 0.097 0.503 0.186 0.743 0.971 0.879 8.286-0.621 9.714-2.357 0.304-0.361-0.118-1.339-0.118-1.339zM8.339 11.786c-0.048 0-0.095-0.014-0.135-0.041s-0.071-0.065-0.089-0.109-0.023-0.093-0.014-0.14c0.009-0.047 0.033-0.090 0.066-0.124s0.077-0.057 0.124-0.066c0.047-0.009 0.096-0.005 0.14 0.014s0.082 0.050 0.109 0.089 0.041 0.087 0.041 0.135c0.001 0.032-0.005 0.064-0.018 0.093s-0.030 0.057-0.053 0.079c-0.023 0.023-0.050 0.041-0.079 0.053s-0.061 0.018-0.093 0.018z"></path>
<path d="M1.429 7.604l0.057-0.246 0.929 0.211c0.077 0.142 0.124 0.297 0.139 0.457 0.018 0.17 0.007 0.341-0.032 0.507-0.046 0.23-0.152 0.445-0.307 0.621-0.147 0.167-0.338 0.29-0.55 0.357-0.219 0.068-0.452 0.076-0.675 0.025-0.224-0.048-0.43-0.157-0.596-0.314-0.164-0.151-0.281-0.345-0.339-0.561-0.064-0.234-0.064-0.481 0-0.714 0.038-0.175 0.107-0.342 0.204-0.493 0.091-0.137 0.214-0.251 0.357-0.332l0.129 0.196c-0.123 0.076-0.229 0.176-0.31 0.296s-0.136 0.255-0.161 0.397c-0.044 0.185-0.041 0.378 0.011 0.561 0.048 0.174 0.143 0.331 0.275 0.454 0.135 0.131 0.305 0.221 0.489 0.261 0.179 0.050 0.368 0.050 0.546 0 0.171-0.057 0.325-0.156 0.446-0.289 0.125-0.144 0.211-0.317 0.25-0.504 0.059-0.226 0.044-0.465-0.043-0.682l-0.818-0.207z"></path>
<path d="M3.45 5.357l-0.832 1.111 0.357 0.639-0.164 0.221-1.321-2.411 0.154-0.211 2.689 0.579-0.168 0.221-0.714-0.15zM3.214 5.3l-1.429-0.321 0.714 1.282 0.714-0.961z"></path>
<path d="M3.214 3.054l0.214-0.161 1.361 1.821 1.121-0.839 0.136 0.182-1.332 0.996-1.5-2z"></path>
<path d="M5.464 1.564l0.239-0.107 0.943 2.064 1.275-0.579 0.093 0.207-1.514 0.689-1.036-2.275z"></path>
<path d="M10.171 2.386l0.054 0.225-1.721 0.404-0.571-2.436 1.671-0.389 0.050 0.221-1.429 0.332 0.204 0.864 1.257-0.296 0.054 0.221-1.261 0.293 0.214 0.904 1.479-0.343z"></path>
<path d="M12.625 2.475l-0.596-0.786c-0.067 0.004-0.133 0.004-0.2 0l-0.671 0.021 0.025 0.793h-0.264l-0.082-2.5 0.95-0.004c0.269-0.025 0.537 0.047 0.757 0.204 0.093 0.075 0.167 0.169 0.218 0.277s0.076 0.225 0.075 0.344c0.010 0.177-0.036 0.352-0.132 0.5-0.103 0.142-0.248 0.249-0.414 0.304l0.625 0.836-0.289 0.011zM12.375 1.3c0.064-0.059 0.114-0.132 0.146-0.213s0.044-0.168 0.037-0.255c0.002-0.087-0.016-0.174-0.053-0.253s-0.091-0.149-0.158-0.204c-0.165-0.112-0.363-0.163-0.561-0.146l-0.679 0.025 0.043 1.25 0.664-0.021c0.203 0.008 0.401-0.057 0.561-0.182z"></path>
<path d="M14.514 1.811l-0.129 0.854-0.261-0.039 0.132-0.839-0.739-1.786 0.279 0.043 0.632 1.521 1.071-1.261 0.25 0.054-1.236 1.454z"></path>
<path d="M18.046 1.661l0.311 0.404-0.136 0.107-0.311-0.414-0.196 0.468-0.15-0.064 0.2-0.468-0.514 0.068v-0.171l0.507-0.057-0.314-0.404 0.139-0.107 0.275 0.407 0.193-0.471 0.154 0.064-0.182 0.479 0.514-0.071v0.175l-0.489 0.057z"></path>
<path d="M19.239 4.539c-0.084-0.13-0.137-0.278-0.154-0.432l0.211-0.093c0.016 0.142 0.062 0.278 0.136 0.4 0.080 0.137 0.184 0.258 0.307 0.357 0.127 0.122 0.29 0.201 0.464 0.225 0.063 0.006 0.127-0.004 0.185-0.028s0.11-0.062 0.151-0.111c0.030-0.033 0.052-0.071 0.066-0.113s0.020-0.086 0.016-0.13c-0.012-0.087-0.041-0.171-0.086-0.246-0.067-0.11-0.14-0.216-0.218-0.318-0.095-0.125-0.181-0.256-0.257-0.393-0.058-0.103-0.090-0.218-0.093-0.336-0-0.132 0.049-0.26 0.139-0.357 0.078-0.094 0.181-0.165 0.296-0.204 0.129-0.037 0.267-0.037 0.396 0 0.167 0.055 0.321 0.142 0.454 0.257 0.11 0.091 0.207 0.197 0.289 0.314 0.076 0.109 0.133 0.229 0.168 0.357l-0.204 0.107c-0.036-0.119-0.088-0.232-0.157-0.336-0.068-0.092-0.149-0.175-0.239-0.246-0.125-0.121-0.287-0.198-0.461-0.218-0.064-0.005-0.128 0.005-0.186 0.031s-0.11 0.065-0.149 0.116c-0.030 0.032-0.053 0.071-0.068 0.112s-0.019 0.086-0.015 0.13c0.008 0.090 0.038 0.177 0.086 0.254 0.050 0.082 0.121 0.189 0.218 0.318 0.096 0.122 0.182 0.251 0.257 0.386 0.059 0.102 0.093 0.218 0.096 0.336 0 0.132-0.049 0.26-0.139 0.357-0.078 0.096-0.182 0.166-0.3 0.204-0.129 0.039-0.267 0.039-0.396 0-0.168-0.054-0.323-0.142-0.457-0.257-0.144-0.125-0.265-0.275-0.357-0.443z"></path>
<path d="M22.832 5.061l-0.504-0.714 0.186-0.132 1.161 1.657-0.186 0.132-0.504-0.714-1.864 1.304-0.15-0.218 1.861-1.314z"></path>
<path d="M22.032 7.996c0.064-0.216 0.188-0.409 0.357-0.557 0.166-0.149 0.368-0.251 0.586-0.296 0.222-0.051 0.454-0.042 0.671 0.025 0.21 0.069 0.398 0.193 0.546 0.357 0.154 0.177 0.259 0.391 0.304 0.621 0.059 0.226 0.059 0.463 0 0.689-0.066 0.215-0.189 0.408-0.357 0.557-0.17 0.152-0.377 0.258-0.601 0.307s-0.456 0.039-0.674-0.029c-0.212-0.066-0.401-0.19-0.546-0.357-0.153-0.176-0.258-0.389-0.304-0.618-0.055-0.231-0.048-0.472 0.018-0.7zM22.5 9.132c0.119 0.136 0.274 0.236 0.446 0.289 0.178 0.052 0.366 0.058 0.547 0.018s0.349-0.125 0.489-0.246c0.132-0.121 0.229-0.275 0.282-0.446 0.050-0.181 0.055-0.371 0.014-0.554s-0.125-0.353-0.246-0.496c-0.124-0.136-0.284-0.236-0.461-0.289-0.18-0.048-0.37-0.048-0.55 0-0.182 0.035-0.35 0.12-0.486 0.246-0.133 0.122-0.231 0.277-0.282 0.45-0.048 0.181-0.048 0.372 0 0.554 0.039 0.177 0.124 0.341 0.246 0.475z"></path>
<path d="M21.761 12.143l0.925-0.357c0-0.064 0.021-0.129 0.039-0.196l0.175-0.646-0.757-0.196 0.068-0.254 2.414 0.646-0.243 0.904c-0.055 0.264-0.202 0.499-0.414 0.664-0.098 0.068-0.21 0.112-0.328 0.13s-0.238 0.007-0.351-0.030c-0.172-0.037-0.327-0.132-0.438-0.269s-0.172-0.308-0.173-0.484l-0.986 0.357 0.068-0.268zM22.957 12.243c0.042 0.076 0.099 0.143 0.167 0.196s0.147 0.092 0.23 0.115c0.084 0.022 0.171 0.028 0.257 0.015s0.168-0.042 0.242-0.087c0.158-0.127 0.265-0.305 0.304-0.504l0.171-0.643-1.211-0.325-0.171 0.643c-0.066 0.192-0.062 0.4 0.011 0.589z"></path>
<path d="M20.479 14.443l-0.182-0.139 1.071-1.411 1.993 1.511-1.036 1.368-0.182-0.139 0.875-1.154-0.714-0.539-0.782 1.032-0.179-0.136 0.8-1.032-0.739-0.561-0.925 1.2z"></path>
<path d="M19.643 17.289l-0.511 0.029v-0.171l0.511-0.004-0.275-0.425 0.139-0.089 0.271 0.429 0.221-0.479 0.154 0.082-0.243 0.45 0.511-0.029v0.175h-0.518l0.275 0.425-0.139 0.089-0.271-0.429-0.236 0.464-0.15-0.086 0.261-0.432z"></path>
<path d="M15 17.004l0.432 0.239c0.072-0.139 0.174-0.261 0.297-0.359s0.265-0.167 0.418-0.206c0.142-0.044 0.291-0.060 0.439-0.046 0.128 0.010 0.252 0.054 0.357 0.129 0.095 0.072 0.165 0.172 0.2 0.286 0.043 0.141 0.035 0.293-0.021 0.429-0.090 0.185-0.21 0.353-0.357 0.496 0.118 0.063 0.227 0.141 0.325 0.232 0.067 0.070 0.117 0.154 0.146 0.246 0.018 0.072 0.019 0.147 0.003 0.22s-0.049 0.14-0.096 0.198c-0.095 0.137-0.238 0.235-0.4 0.275-0.143 0.054-0.3 0.054-0.443 0-0.063-0.027-0.12-0.069-0.164-0.122s-0.076-0.115-0.093-0.182c-0.037-0.118-0.028-0.246 0.025-0.357 0.082-0.162 0.189-0.311 0.318-0.439l-0.861-0.479c-0.033 0.168-0.040 0.34-0.021 0.511h-0.218c-0.015-0.21 0.010-0.42 0.071-0.621l-0.45-0.25 0.093-0.2zM15.621 17.361l0.946 0.525c0.124-0.118 0.227-0.257 0.304-0.411 0.039-0.104 0.039-0.218 0-0.321-0.016-0.062-0.048-0.119-0.091-0.166s-0.098-0.082-0.159-0.102c-0.148-0.050-0.309-0.050-0.457 0-0.121 0.032-0.234 0.090-0.33 0.17s-0.174 0.181-0.227 0.294l0.014 0.011zM16.964 18.789c0.023-0.039 0.038-0.083 0.043-0.129s0-0.092-0.014-0.135c-0.022-0.071-0.061-0.134-0.114-0.186-0.091-0.077-0.19-0.143-0.296-0.196-0.108 0.107-0.203 0.227-0.282 0.357-0.043 0.081-0.053 0.176-0.029 0.264 0.011 0.041 0.031 0.079 0.058 0.112s0.061 0.059 0.099 0.078c0.091 0.034 0.191 0.034 0.282 0 0.097-0.026 0.182-0.085 0.239-0.168l0.014 0.004z"></path>
<path d="M10.646 19.757l0.050-2.5h0.254l-0.039 2 1.014-1.664h0.125l0.95 1.693 0.036-1.989h0.254l-0.046 2.5h-0.218l-1.050-1.868-1.111 1.832-0.218-0.004z"></path>
<path d="M9.404 17.143c0.163 0.156 0.28 0.354 0.338 0.572s0.053 0.448-0.013 0.664c-0.059 0.221-0.176 0.422-0.339 0.582-0.159 0.156-0.358 0.265-0.575 0.314-0.229 0.052-0.467 0.044-0.693-0.021-0.225-0.055-0.431-0.167-0.6-0.325-0.161-0.154-0.276-0.349-0.332-0.564-0.055-0.223-0.051-0.456 0.012-0.676s0.182-0.421 0.345-0.581c0.156-0.156 0.351-0.267 0.564-0.321 0.228-0.052 0.465-0.044 0.689 0.021 0.227 0.058 0.435 0.173 0.604 0.336zM8.186 17.018c-0.175 0.041-0.334 0.13-0.461 0.257-0.132 0.131-0.225 0.295-0.271 0.475-0.050 0.179-0.050 0.368 0 0.546 0.042 0.174 0.132 0.332 0.261 0.457 0.134 0.132 0.301 0.226 0.482 0.275 0.182 0.046 0.372 0.046 0.554 0 0.175-0.043 0.335-0.132 0.464-0.257 0.131-0.132 0.224-0.295 0.271-0.475 0.050-0.18 0.050-0.37 0-0.55-0.046-0.173-0.137-0.331-0.264-0.457-0.135-0.132-0.303-0.225-0.486-0.271-0.18-0.050-0.37-0.050-0.55 0z"></path>
<path d="M5.482 15.357l0.096 0.982c0.061 0.026 0.121 0.056 0.179 0.089l0.582 0.336 0.393-0.693 0.232 0.132-1.25 2.154-0.814-0.468c-0.241-0.121-0.431-0.323-0.536-0.571-0.039-0.112-0.052-0.231-0.038-0.348s0.054-0.23 0.117-0.33c0.083-0.157 0.215-0.282 0.375-0.357 0.163-0.067 0.343-0.081 0.514-0.039l-0.104-1.050 0.254 0.164zM5.075 16.486c-0.084 0.021-0.163 0.059-0.232 0.111s-0.127 0.118-0.17 0.193c-0.043 0.075-0.070 0.158-0.081 0.244s-0.003 0.173 0.021 0.256c0.084 0.185 0.229 0.335 0.411 0.425l0.575 0.332 0.625-1.071-0.575-0.332c-0.165-0.124-0.369-0.186-0.575-0.175v0.018z"></path>
<path d="M3.368 13.682l0.161-0.161 1.232 1.268-1.786 1.743-1.189-1.229 0.164-0.161 1.011 1.039 0.611-0.618-0.886-0.921 0.171-0.164 0.904 0.929 0.664-0.646-1.057-1.079z"></path>
<path d="M0.714 12.279l0.086-0.493 0.168 0.025-0.096 0.507 0.475-0.175 0.057 0.157-0.482 0.164 0.396 0.336-0.114 0.129-0.382-0.357-0.089 0.507-0.171-0.032 0.1-0.507-0.479 0.171-0.054-0.139 0.479-0.168-0.396-0.332 0.118-0.129 0.386 0.336z"></path>
</symbol>
<symbol id="icon-burger" viewBox="0 0 29 25">
<path stroke="#2E2F42" stroke-linecap="round" stroke-linejoin="round" stroke-width="3" d="M1.348 20.043h29.538M1.348 10.735h29.538M1.348 1.428h29.538"></path>
</symbol>
<symbol id="icon-close-model" viewBox="0 0 20 20">
<path d="M20 2.014l-2.014-2.014-7.986 7.986-7.986-7.986-2.014 2.014 7.986 7.986-7.986 7.986 2.014 2.014 7.986-7.986 7.986 7.986 2.014-2.014-7.986-7.986 7.986-7.986z"></path>
</symbol>
<symbol id="icon-telegram" viewBox="0 0 24 20">
<path d="M24 0l-24 11.25 7.67 2.367 11.83-9.242-8.998 10.116 0.007 0.002-0.009-0.002v5.509l4.301-4.182 5.449 1.682 3.75-17.5z"></path>
</symbol>
<symbol id="icon-user-name" viewBox="0 0 20 20">
<path d="M10 10c2.763 0 5-2.237 5-5s-2.237-5-5-5c-2.763 0-5 2.237-5 5s2.237 5 5 5zM10 12.5c-3.338 0-10 1.675-10 5v1.25c0 0.688 0.563 1.25 1.25 1.25h17.5c0.688 0 1.25-0.563 1.25-1.25v-1.25c0-3.325-6.662-5-10-5z"></path>
</symbol>
</symbol>
<symbol id="icon-phone" viewBox="0 0 20 20">
<path d="M18.040 13.639l-2.828-0.323c-0.679-0.078-1.347 0.156-1.826 0.635l-2.049 2.049c-3.151-1.603-5.734-4.175-7.337-7.337l2.060-2.060c0.479-0.479 0.713-1.147 0.635-1.826l-0.323-2.806c-0.134-1.124-1.080-1.971-2.216-1.971h-1.926c-1.258 0-2.305 1.047-2.227 2.305 0.59 9.508 8.194 17.101 17.691 17.691 1.258 0.078 2.305-0.969 2.305-2.227v-1.926c0.011-1.124-0.835-2.071-1.959-2.204z"></path>
</symbol>

</defs>
</svg>
